<svg xmlns="http://www.w3.org/2000/svg" version="1.1" xmlns:xlink="http://www.w3.org/1999/xlink" xmlns:svgjs="http://svgjs.com/svgjs" width="30" height="30" x="0" y="0" viewBox="0 0 469.333 469.333" style="enable-background:new 0 0 512 512" xml:space="preserve" class=""><g><path d="M426.667 0h-384C19.135 0 0 19.135 0 42.667v384c0 23.531 19.135 42.667 42.667 42.667h384c23.531 0 42.667-19.135 42.667-42.667v-384C469.333 19.135 450.198 0 426.667 0z" style="" fill="#141627" data-original="#303c42" class=""></path><path d="M448 426.667c0 11.76-9.573 21.333-21.333 21.333h-384c-11.76 0-21.333-9.573-21.333-21.333v-384c0-11.76 9.573-21.333 21.333-21.333h384c11.76 0 21.333 9.573 21.333 21.333v384z" style="" fill="#0195f4" data-original="#388e3c" class=""></path><path d="M192 181.333v-64a10.66 10.66 0 0 0-10.667-10.667h-64a10.66 10.66 0 0 0-10.667 10.667v64A10.66 10.66 0 0 0 117.333 192h64A10.66 10.66 0 0 0 192 181.333z" style="" fill="#141627" data-original="#303c42" class=""></path><path d="M128 128h42.667v42.667H128z" style="" fill="#546e7a" data-original="#546e7a"></path><path d="M352 106.667h-64a10.66 10.66 0 0 0-10.667 10.667v64A10.66 10.66 0 0 0 288 192.001h64a10.66 10.66 0 0 0 10.667-10.667v-64A10.66 10.66 0 0 0 352 106.667z" style="" fill="#141627" data-original="#303c42" class=""></path><path d="M298.667 128h42.667v42.667h-42.667z" style="" fill="#546e7a" data-original="#546e7a"></path><path d="M330.667 234.667h-53.333v-32A10.66 10.66 0 0 0 266.667 192h-64A10.66 10.66 0 0 0 192 202.667v32h-53.333A10.66 10.66 0 0 0 128 245.334V352a10.66 10.66 0 0 0 10.667 10.667h42.667A10.66 10.66 0 0 0 192.001 352v-32h85.333v32a10.66 10.66 0 0 0 10.667 10.667h42.667A10.66 10.66 0 0 0 341.335 352V245.333a10.663 10.663 0 0 0-10.668-10.666z" style="" fill="#141627" data-original="#303c42" class=""></path><path d="M320 341.333h-21.333v-32A10.66 10.66 0 0 0 288 298.666H181.333a10.66 10.66 0 0 0-10.667 10.667v32h-21.333V256h53.333a10.66 10.66 0 0 0 10.667-10.667v-32H256v32A10.66 10.66 0 0 0 266.667 256H320v85.333z" style="" fill="#546e7a" data-original="#546e7a"></path><linearGradient id="a" x1="-59.825" x2="-46.082" y1="617.434" y2="603.692" gradientTransform="matrix(21.3333 0 0 -21.3333 1430.111 13315.223)" gradientUnits="userSpaceOnUse"><stop offset="0" style="stop-color:#000000;stop-opacity:0.1"></stop><stop offset="1" style="stop-color:#000000;stop-opacity:0"></stop></linearGradient><path d="m109.18 187.98.014.014-.012-.017-.002.003zm204.345 46.687-38.837-38.837c1.586 1.862 2.646 4.197 2.646 6.837v32h36.191zm46.496-124.171c1.586 1.862 2.646 4.197 2.646 6.837v64A10.66 10.66 0 0 1 352 192h-64c-1.928 0-3.641-.65-5.201-1.543l44.21 44.21h3.658a10.66 10.66 0 0 1 10.667 10.667V352a10.66 10.66 0 0 1-10.667 10.667H288A10.66 10.66 0 0 1 277.333 352v-32H192v32a10.66 10.66 0 0 1-10.667 10.667h-42.667a10.634 10.634 0 0 1-7.544-3.122L219.579 448h207.087c11.76 0 21.333-9.573 21.333-21.333V198.475l-87.978-87.979zM192 234.667v-32A10.66 10.66 0 0 1 202.667 192h64c2.641 0 4.975 1.06 6.837 2.646l-84.15-84.15c1.586 1.862 2.646 4.197 2.646 6.837v64A10.66 10.66 0 0 1 181.333 192h-64c-2.564 0-4.823-1.022-6.661-2.527l45.194 45.194H192z" style="fill:url(#a);" fill=""></path><linearGradient id="b" x1="-68.689" x2="-43.384" y1="619.051" y2="607.251" gradientTransform="matrix(21.3333 0 0 -21.3333 1430.111 13315.223)" gradientUnits="userSpaceOnUse"><stop offset="0" style="stop-color:#FFFFFF;stop-opacity:0.2"></stop><stop offset="1" style="stop-color:#FFFFFF;stop-opacity:0"></stop></linearGradient><path d="M426.667 0h-384C19.135 0 0 19.135 0 42.667v384c0 23.531 19.135 42.667 42.667 42.667h384c23.531 0 42.667-19.135 42.667-42.667v-384C469.333 19.135 450.198 0 426.667 0z" style="fill:url(#b);" fill=""></path></g></svg>