<?xml version="1.0"?>
<svg xmlns="http://www.w3.org/2000/svg" xmlns:xlink="http://www.w3.org/1999/xlink" xmlns:svgjs="http://svgjs.com/svgjs" version="1.1" width="512" height="512" x="0" y="0" viewBox="0 0 469.333 469.333" style="enable-background:new 0 0 512 512" xml:space="preserve" class=""><g>
<g xmlns="http://www.w3.org/2000/svg">
	<g>
		<g>
			<circle cx="234.667" cy="128" r="128" fill="#26c6da" data-original="#000000" style="" class=""/>
			<path d="M416.833,325.438c-20.167-10.344-52.292-24.854-90.708-35.219c-5.333-1.5-10.958,1.469-12.813,6.698l-43.721,121.974     l-13.237-66.203l20.438-61.313c1.083-3.25,0.542-6.833-1.479-9.615c-2-2.781-5.208-4.427-8.646-4.427h-64     c-3.438,0-6.646,1.646-8.646,4.427c-2.021,2.781-2.563,6.365-1.479,9.615l20.438,61.313l-13.237,66.203l-43.721-121.974     c-1.854-5.229-7.5-8.188-12.813-6.698c-38.417,10.365-70.542,24.875-90.708,35.219C20.125,342.063,0,374.875,0,411.052v15.615     c0,23.531,19.146,42.667,42.667,42.667h160h64h160c23.521,0,42.667-19.135,42.667-42.667v-15.615     C469.333,374.875,449.208,342.063,416.833,325.438z" fill="#26c6da" data-original="#000000" style="" class=""/>
		</g>
	</g>
</g>
<g xmlns="http://www.w3.org/2000/svg">
</g>
<g xmlns="http://www.w3.org/2000/svg">
</g>
<g xmlns="http://www.w3.org/2000/svg">
</g>
<g xmlns="http://www.w3.org/2000/svg">
</g>
<g xmlns="http://www.w3.org/2000/svg">
</g>
<g xmlns="http://www.w3.org/2000/svg">
</g>
<g xmlns="http://www.w3.org/2000/svg">
</g>
<g xmlns="http://www.w3.org/2000/svg">
</g>
<g xmlns="http://www.w3.org/2000/svg">
</g>
<g xmlns="http://www.w3.org/2000/svg">
</g>
<g xmlns="http://www.w3.org/2000/svg">
</g>
<g xmlns="http://www.w3.org/2000/svg">
</g>
<g xmlns="http://www.w3.org/2000/svg">
</g>
<g xmlns="http://www.w3.org/2000/svg">
</g>
<g xmlns="http://www.w3.org/2000/svg">
</g>
</g></svg>
