<?xml version="1.0"?>
<svg xmlns="http://www.w3.org/2000/svg" xmlns:xlink="http://www.w3.org/1999/xlink" xmlns:svgjs="http://svgjs.com/svgjs" version="1.1" width="512" height="512" x="0" y="0" viewBox="0 0 303.002 303.002" style="enable-background:new 0 0 512 512" xml:space="preserve" class=""><g>
<g xmlns="http://www.w3.org/2000/svg">
	<g>
		<path d="M151.501,0c66.75,0,123.194,27.559,125.104,60.549c-1.91,32.987-58.354,60.553-125.104,60.553    c-66.752,0-123.191-27.56-125.104-60.553C28.31,27.559,84.749,0,151.501,0z" fill="#00ffb7" data-original="#000000" style="" class=""/>
		<path d="M276.785,240.744c0,33.747-57.369,62.258-125.284,62.258S26.217,274.491,26.217,240.744v-29.771    c21.449,25.754,68.887,43.27,125.284,43.27s103.834-17.521,125.284-43.27V240.744z" fill="#00ffb7" data-original="#000000" style="" class=""/>
		<path d="M276.785,179.688c0,33.746-57.369,62.258-125.284,62.258S26.217,213.434,26.217,179.688v-31.009    c21.449,25.748,68.887,43.259,125.284,43.259s103.834-17.522,125.284-43.259V179.688z" fill="#00ffb7" data-original="#000000" style="" class=""/>
		<path d="M276.785,117.381c0,33.748-57.369,62.257-125.284,62.257s-125.284-28.51-125.284-62.257V90.135    c21.449,25.754,68.887,43.258,125.284,43.258s103.834-17.51,125.284-43.258V117.381z" fill="#00ffb7" data-original="#000000" style="" class=""/>
	</g>
</g>
<g xmlns="http://www.w3.org/2000/svg">
</g>
<g xmlns="http://www.w3.org/2000/svg">
</g>
<g xmlns="http://www.w3.org/2000/svg">
</g>
<g xmlns="http://www.w3.org/2000/svg">
</g>
<g xmlns="http://www.w3.org/2000/svg">
</g>
<g xmlns="http://www.w3.org/2000/svg">
</g>
<g xmlns="http://www.w3.org/2000/svg">
</g>
<g xmlns="http://www.w3.org/2000/svg">
</g>
<g xmlns="http://www.w3.org/2000/svg">
</g>
<g xmlns="http://www.w3.org/2000/svg">
</g>
<g xmlns="http://www.w3.org/2000/svg">
</g>
<g xmlns="http://www.w3.org/2000/svg">
</g>
<g xmlns="http://www.w3.org/2000/svg">
</g>
<g xmlns="http://www.w3.org/2000/svg">
</g>
<g xmlns="http://www.w3.org/2000/svg">
</g>
</g></svg>
