<?xml version="1.0"?>
<svg xmlns="http://www.w3.org/2000/svg" id="Layer_1" enable-background="new 0 0 480 480" height="512px" viewBox="0 0 480 480" width="512px"><g><path d="m240 28.5c-87.673 0-159 71.327-159 159 0 29.125 7.942 57.607 22.97 82.369 2.293 3.777 1.089 8.697-2.688 10.989-3.775 2.291-8.696 1.091-10.989-2.688-7.493-12.347-13.368-25.538-17.574-39.247-31.781 3.656-56.719 30.992-56.719 63.577 0 35.29 28.71 64 64 64 4.418 0 8 3.582 8 8s-3.582 8-8 8c-44.112 0-80-35.888-80-80 0-40.307 29.767-73.699 68.691-79.186-22.737-109.128 60.972-210.814 171.309-210.814 82.133 0 152.443 57.111 170.526 135.521.993 4.306-1.691 8.601-5.997 9.593-4.307.999-8.601-1.692-9.593-5.997-16.718-72.49-80.43-123.117-154.936-123.117zm139 152h-27c-4.418 0-8 3.582-8 8s3.582 8 8 8h27c46.869 0 85 38.131 85 85 0 40.604-28.878 75.692-68.664 83.434-4.337.844-7.169 5.043-6.325 9.38.844 4.338 5.045 7.171 9.38 6.325 47.288-9.201 81.609-50.894 81.609-99.139 0-55.691-45.309-101-101-101zm-204.276 120.665c-3.146-4.882-10.302-4.881-13.447 0l-47.366 73.467c-3.422 5.307.389 12.335 6.724 12.335h21v35.8c0 24.666 20.066 44.733 44.732 44.733 4.418 0 8-3.582 8-8s-3.582-8-8-8c-15.843 0-28.732-12.89-28.732-28.733v-43.8c0-4.418-3.582-8-8-8h-14.323l32.688-50.703 32.689 50.703h-14.323c-4.418 0-8 3.582-8 8v35.2c0 4.418 3.582 8 8 8s8-3.582 8-8v-27.2h21c6.338 0 10.144-7.031 6.724-12.335zm184.642 76.868h-21v-29.866c0-4.418-3.582-8-8-8s-8 3.582-8 8v37.866c0 4.418 3.582 8 8 8h14.323l-32.689 50.703-32.689-50.703h14.323c4.418 0 8-3.582 8-8v-43.8c0-15.844 12.89-28.733 28.732-28.733 4.418 0 8-3.582 8-8s-3.582-8-8-8c-24.666 0-44.732 20.067-44.732 44.733v35.8h-21c-6.338 0-10.144 7.031-6.724 12.335l47.366 73.467c3.146 4.882 10.302 4.881 13.447 0l47.366-73.467c3.428-5.315-.396-12.335-6.723-12.335z" data-original="#000000" class="active-path" data-old_color="#000000" fill="#ffffff"/></g> </svg>
