<?xml version="1.0"?>
<svg xmlns="http://www.w3.org/2000/svg" xmlns:xlink="http://www.w3.org/1999/xlink" xmlns:svgjs="http://svgjs.com/svgjs" version="1.1" width="512" height="512" x="0" y="0" viewBox="0 0 520 520" style="enable-background:new 0 0 512 512" xml:space="preserve" class=""><g>
<g xmlns="http://www.w3.org/2000/svg" id="XMLID_885_">
	<path id="XMLID_886_" d="M418.248,397.035c-16.748-16.747-42.237-20.898-63.433-10.33l-26.302,13.114   c-42.902,21.39-94.127,21.389-137.027,0l-26.302-13.114c-21.195-10.567-46.686-6.417-63.433,10.33l-25.6,25.6   c-5.858,5.857-5.858,15.355,0,21.213C125.26,492.955,190.552,520,260,520s134.74-27.045,183.848-76.152   c5.858-5.857,5.858-15.355,0-21.213L418.248,397.035z" fill="#bd63f9" data-original="#000000" style="" class=""/>
	<path id="XMLID_887_" d="M131.58,351.39l-11.4-22.88c-21.39-42.9-21.39-94.12,0-137.02l11.4-22.88   c-19.27-2.02-37.13-10.52-51.04-24.43l-25.6-25.6c-2.76-2.76-5.11-5.8-7.03-9.08C16.78,153.17,0,205.3,0,260   s16.78,106.83,47.91,150.5c1.92-3.28,4.27-6.32,7.03-9.08l25.6-25.6C94.44,361.92,112.31,353.42,131.58,351.39z" fill="#bd63f9" data-original="#000000" style="" class=""/>
	<path id="XMLID_888_" d="M472.09,109.5c-1.92,3.28-4.27,6.32-7.03,9.08l-25.6,25.6c-13.9,13.9-31.76,22.4-51.04,24.43l11.4,22.88   c21.39,42.9,21.39,94.12,0,137.02l-11.4,22.88c19.27,2.03,37.14,10.53,51.04,24.43l25.6,25.6c2.76,2.76,5.11,5.8,7.03,9.08   C503.22,366.83,520,314.7,520,260S503.22,153.17,472.09,109.5z" fill="#bd63f9" data-original="#000000" style="" class=""/>
	<path id="XMLID_889_" d="M101.752,122.965c10.571,10.571,24.625,16.124,38.884,16.123c8.331,0,16.732-1.896,24.549-5.793   l26.302-13.114c42.901-21.391,94.126-21.39,137.027,0l26.302,13.114c21.193,10.566,46.686,6.417,63.433-10.33l25.6-25.6   c5.858-5.857,5.858-15.355,0-21.213C394.74,27.045,329.448,0,260,0S125.26,27.045,76.152,76.152   c-5.858,5.857-5.858,15.355,0,21.213L101.752,122.965z" fill="#bd63f9" data-original="#000000" style="" class=""/>
</g>















</g></svg>
