<?xml version="1.0"?>
<svg xmlns="http://www.w3.org/2000/svg" id="Capa_1" enable-background="new 0 0 512 512" height="512px" viewBox="0 0 512 512" width="512px"><g><g><g><path d="m452.819 273.25c-4.142 0-7.5 3.358-7.5 7.5v53.623c0 21.152-17.208 38.36-38.361 38.36h-99.968c-8.59 0-16.602 4.618-20.907 12.051l-50.883 87.85c-1.519 2.623-4.031 2.906-5.041 2.906s-3.522-.283-5.042-2.906l-50.883-87.849c-4.306-7.434-12.317-12.051-20.907-12.051h-99.967c-21.152 0-38.36-17.208-38.36-38.36v-219.98c0-21.152 17.208-38.36 38.36-38.36h101.521c4.142 0 7.5-3.358 7.5-7.5s-3.358-7.5-7.5-7.5h-101.521c-29.422-.002-53.36 23.936-53.36 53.359v219.98c0 29.423 23.938 53.36 53.36 53.36h99.968c3.257 0 6.294 1.751 7.927 4.57l50.883 87.848c3.768 6.505 10.504 10.389 18.021 10.388 7.517 0 14.253-3.883 18.02-10.388l50.884-87.849c1.632-2.818 4.669-4.569 7.927-4.569h99.968c29.423 0 53.361-23.938 53.361-53.36v-53.623c0-4.142-3.358-7.5-7.5-7.5z" data-original="#000000" class="active-path" data-old_color="#000000" fill="#ffffff"/><path d="m480.854 21.46h-267.252c-17.312 0-31.146 14.128-31.146 31.146v169.668c0 17.061 13.878 31.146 31.146 31.146h267.252c17.266 0 31.146-14.083 31.146-31.146v-169.668c0-17.103-13.922-31.146-31.146-31.146zm-267.252 15h267.252c1.123 0 2.218.116 3.277.336l-123.843 110.517c-7.445 6.643-18.675 6.645-26.12 0l-123.843-110.517c1.058-.219 2.154-.336 3.277-.336zm-16.146 185.814v-169.668c0-2.163.434-4.224 1.209-6.111l109.354 97.587-110.561 78.237c0-.015-.002-.03-.002-.045zm283.398 16.145h-267.252c-3.34 0-6.446-1.019-9.024-2.763l114.926-81.325 4.677 4.173c13.138 11.724 32.955 11.726 46.095 0l4.676-4.173 114.926 81.325c-2.578 1.744-5.684 2.763-9.024 2.763zm16.146-16.145c0 .015-.002.03-.002.046l-110.562-78.237 109.355-97.588c.775 1.887 1.209 3.948 1.209 6.111z" data-original="#000000" class="active-path" data-old_color="#000000" fill="#ffffff"/></g></g></g> </svg>
