<?xml version="1.0"?>
<svg xmlns="http://www.w3.org/2000/svg" xmlns:xlink="http://www.w3.org/1999/xlink" xmlns:svgjs="http://svgjs.com/svgjs" version="1.1" width="512" height="512" x="0" y="0" viewBox="0 0 512 512" style="enable-background:new 0 0 512 512" xml:space="preserve" class=""><g><path xmlns="http://www.w3.org/2000/svg" d="m12.359375 443.316406c-2.59375-2.597656-2.492187-7.269531 1.144531-10.902344l21.492188-21.496093c13.707031-13.703125 30.941406-18.066407 48.386718-.621094l.519532.519531c17.445312 17.441406 12.875 35.300782-1.453125 49.632813l-10.28125 10.277343 22.429687 22.429688c3.324219 3.324219.933594 9.03125-3.117187 13.082031-4.046875 4.050781-9.757813 6.4375-13.082031 3.117188zm25.441406-6.957031 21.910157 21.910156 10.277343-10.28125c5.816407-5.8125 6.023438-12.667969-1.039062-19.726562l-1.140625-1.144531c-7.058594-7.058594-13.914063-6.851563-19.730469-1.039063zm0 0" fill="#fc573b" data-original="#000000" style="" class=""/><path xmlns="http://www.w3.org/2000/svg" d="m76.632812 379.042969c-2.59375-2.597657-2.910156-6.851563.101563-9.863281l21.496094-21.492188c14.226562-14.226562 30.839843-20.25 47.761719-3.324219 11.628906 11.628907 12.980468 23.570313 8.515624 33.640625l35.617188 10.28125c1.039062.207032 1.867188.832032 2.386719 1.351563 4.050781 4.046875 3.011719 13.808593-1.765625 18.585937-2.074219 2.074219-4.878906 3.214844-8.203125 2.179688l-41.84375-13.394532-6.855469 6.851563 25.023438 25.027344c3.324218 3.320312.9375 9.03125-3.113282 13.082031-4.050781 4.046875-9.761718 6.4375-13.082031 3.113281zm25.4375-6.957031 19.316407 19.3125 10.277343-10.277344c5.816407-5.816406 6.957032-11.734375-.308593-19.003906-7.269531-7.265626-13.1875-6.125-19.003907-.308594zm0 0" fill="#fc573b" data-original="#000000" style="" class=""/><path xmlns="http://www.w3.org/2000/svg" d="m142.464844 313.214844c-3.425782-3.429688-.832032-8.933594 3.21875-12.980469 4.046875-4.050781 9.550781-6.648437 12.976562-3.21875l66.039063 66.039063c3.324219 3.320312.933593 9.03125-3.113281 13.082031-4.050782 4.050781-9.761719 6.4375-13.082032 3.117187zm0 0" fill="#fc573b" data-original="#000000" style="" class=""/><path xmlns="http://www.w3.org/2000/svg" d="m221.378906 328.578125-27.519531-27.515625c-17.855469-17.859375-13.390625-35.613281.9375-49.945312 14.328125-14.328126 32.1875-18.894532 50.046875-1.035157l27.515625 27.515625c17.859375 17.859375 13.289063 35.71875-1.039063 50.046875-14.328124 14.332031-32.082031 18.792969-49.941406.933594zm7.265625-62.300781c-7.164062-7.164063-13.914062-6.851563-19.726562-1.035156-5.816407 5.8125-6.023438 12.460937 1.140625 19.625l27.515625 27.515624c7.164062 7.164063 13.8125 6.957032 19.625 1.140626 5.816406-5.8125 6.128906-12.5625-1.039063-19.726563zm0 0" fill="#fc573b" data-original="#000000" style="" class=""/><path xmlns="http://www.w3.org/2000/svg" d="m240.792969 214.882812c-2.597657-2.597656-2.90625-6.855468.105469-9.863281l21.492187-21.496093c14.226563-14.222657 30.839844-20.246094 47.761719-3.320313 11.632812 11.628906 12.980468 23.570313 8.515625 33.640625l35.617187 10.28125c1.039063.207031 1.867188.828125 2.386719 1.351562 4.050781 4.046876 3.011719 13.808594-1.765625 18.582032-2.074219 2.078125-4.878906 3.21875-8.203125 2.183594l-41.84375-13.394532-6.855469 6.851563 25.027344 25.023437c3.320312 3.324219.933594 9.035156-3.117188 13.085938-4.050781 4.046875-9.761718 6.433594-13.082031 3.113281zm25.441406-6.957031 19.3125 19.3125 10.277344-10.277343c5.816406-5.816407 6.957031-11.734376-.308594-19.003907-7.269531-7.265625-13.1875-6.125-19.003906-.308593zm0 0" fill="#fc573b" data-original="#000000" style="" class=""/><path xmlns="http://www.w3.org/2000/svg" d="m306.625 149.050781c-3.425781-3.425781-.832031-8.929687 3.21875-12.980469 4.046875-4.046874 9.550781-6.644531 12.976562-3.214843l66.039063 66.039062c3.324219 3.320313.9375 9.03125-3.113281 13.082031-4.050782 4.046876-9.761719 6.4375-13.082032 3.113282zm0 0" fill="#fc573b" data-original="#000000" style="" class=""/><path xmlns="http://www.w3.org/2000/svg" d="m379.308594 66.609375c3.425781-3.425781 8.617187-1.144531 12.042968 2.28125 3.945313 3.949219 5.609376 9.140625 2.492188 12.253906l-14.328125 14.332031 56.382813 56.378907c3.320312 3.324219.933593 9.035156-3.117188 13.082031-4.046875 4.050781-9.761719 6.441406-13.082031 3.117188l-56.382813-56.382813-14.328125 14.328125c-3.117187 3.117188-8.304687 1.457031-12.253906-2.488281-3.425781-3.429688-5.710937-8.621094-2.285156-12.046875zm0 0" fill="#fc573b" data-original="#000000" style="" class=""/><path xmlns="http://www.w3.org/2000/svg" d="m457.597656 78.03125c-.621094-.625-1.351562-.933594-1.867187-1.039062l-57.109375-14.121094c-.625-.207032-1.039063-.625-1.351563-.933594-3.839843-3.84375-.101562-13.1875 4.363281-17.652344 2.597657-2.597656 4.566407-2.492187 7.683594-1.664062l41.21875 12.148437-12.25-41.117187c-.933594-3.011719-.933594-5.089844 1.660156-7.683594 4.464844-4.464844 13.8125-8.203125 17.652344-4.359375.3125.3125.726563.726563.933594 1.347656l14.226562 57.007813c.101563.519531.414063 1.246094 1.039063 1.867187l26.0625 26.0625c3.320313 3.324219.933594 9.035157-3.117187 13.082031-4.050782 4.050782-9.761719 6.4375-13.082032 3.117188zm0 0" fill="#fc573b" data-original="#000000" style="" class=""/><path xmlns="http://www.w3.org/2000/svg" d="m256 91c-90.980469 0-165 74.019531-165 165 0 11.441406 1.171875 22.613281 3.402344 33.40625l195.003906-195.007812c-10.792969-2.226563-21.964844-3.398438-33.40625-3.398438zm0 0" fill="#fc573b" data-original="#000000" style="" class=""/><path xmlns="http://www.w3.org/2000/svg" d="m61 256c0-107.523438 87.476562-195 195-195 20.1875 0 39.671875 3.085938 58 8.804688l47.285156-47.285157c-32.664062-14.746093-68.375-22.519531-105.285156-22.519531-68.378906 0-132.667969 26.628906-181.019531 74.980469-48.351563 48.351562-74.980469 112.640625-74.980469 181.019531 0 36.910156 7.773438 72.625 22.519531 105.285156l47.289063-47.285156c-5.722656-18.328125-8.808594-37.8125-8.808594-58zm0 0" fill="#fc573b" data-original="#000000" style="" class=""/><path xmlns="http://www.w3.org/2000/svg" d="m256 421c90.980469 0 165-74.019531 165-165 0-5.410156-.269531-10.761719-.78125-16.039062l-180.257812 180.257812c5.277343.511719 10.628906.78125 16.039062.78125zm0 0" fill="#fc573b" data-original="#000000" style="" class=""/><path xmlns="http://www.w3.org/2000/svg" d="m495.351562 164.828125-48.964843 48.964844c3.011719 13.597656 4.613281 27.71875 4.613281 42.207031 0 107.523438-87.476562 195-195 195-14.488281 0-28.609375-1.601562-42.207031-4.613281l-48.964844 48.964843c28.730469 10.929688 59.511719 16.648438 91.171875 16.648438 68.378906 0 132.667969-26.628906 181.019531-74.980469 48.351563-48.351562 74.980469-112.640625 74.980469-181.019531 0-31.660156-5.71875-62.441406-16.648438-91.171875zm0 0" fill="#fc573b" data-original="#000000" style="" class=""/></g></svg>
