<?xml version="1.0" encoding="UTF-8"?>
<!-- Generator: Adobe Illustrator 25.4.1, SVG Export Plug-In . SVG Version: 6.00 Build 0)  -->
<svg xmlns="http://www.w3.org/2000/svg" xmlns:xlink="http://www.w3.org/1999/xlink" version="1.1" id="Capa_1" x="0px" y="0px" viewBox="0 0 512 512" style="enable-background:new 0 0 512 512;" xml:space="preserve" width="512" height="512">
<g id="layer1" transform="translate(-17.934854,-428.95389)">
	<g id="g4450" transform="translate(128.56702)">
		<polygon id="rect4394" style="fill:#932279;" points="123.454,685.175 10.432,796.48 -102.591,685.175 10.432,573.869   ">
		</polygon>
		<polygon id="rect4396" style="fill:#EFA724;" points="146.994,662.375 35.665,550.365 146.994,438.355 258.322,550.365   ">
		</polygon>
		<polygon id="rect4398" style="fill:#9CCD2A;" points="258.578,820.33 145.555,931.636 32.533,820.33 145.556,709.024   ">
		</polygon>
		<polygon id="rect4400" style="fill:#262577;" points="282.116,797.528 170.787,685.518 282.116,573.508 393.444,685.518   ">
		</polygon>
		<rect id="rect4404" x="169.139" y="707.226" style="fill:#EFA724;" width="156.529" height="157.651"/>
		<rect id="rect4406" x="169.748" y="504.52" style="fill:#932279;" width="155.92" height="157.658"/>
		<rect id="rect4414" x="-33.554" y="707.231" style="fill:#262577;" width="157.646" height="157.646"/>
		<rect id="rect4408" x="-33.567" y="504.52" style="fill:#9CCD2A;" width="157.652" height="156.736"/>
		<path id="rect4329" style="fill:#FFFFFF;" d="M-39.207,614.835l-71.425,70.34l71.443,70.358v114.983H75.452l70.083,69.02    l70.084-69.02h115.83V755.859l69.918-70.347l-68.956-69.377V499.802H215.997l-69.007-69.431l-68.108,68.524h-118.09V614.835z     M164.063,637.206l-17.078,17.181L129.7,636.995V498.896H94.746l52.24-52.558l53.138,53.464h-36.061V637.206z M-27.953,510.151    h95.649l-39.981,40.226l90.729,91.284v13.962h-16.991l-91.038-89.656l-38.367,37.784V510.151z M83.559,510.151h34.885V625.67    l-74.851-75.309L83.559,510.151z M175.339,511.075h35.992l39.048,39.287l-75.04,75.497L175.339,511.075z M227.204,511.075h93.954    v93.736l-39.053-39.291l-90.473,91.027h-16.293v-14.719l90.911-91.467L227.204,511.075z M282.106,581.488l39.051,39.291v35.769    H207.503L282.106,581.488z M10.429,581.775l74.985,73.846H-27.953v-36.048L10.429,581.775z M-39.208,630.656v36.222H96.843    l18.579,18.297l-16.686,16.433H-39.19v5.628v32.475l-55.377-54.536L-39.208,630.656z M332.412,632.102l53.086,53.411    l-54.048,54.379v-38.304H194.693l-15.979-16.076l17.601-17.708h136.097L332.412,632.102z M129.7,652.985l17.276,17.381    l3.981-4.006l13.106-13.187v14.629h16.382l-17.601,17.708l15.979,16.076h-15.318v5.648v11.578l-17.968-17.695l-15.817,15.577    v-15.088h-14.945l16.686-16.433l-4.009-3.948l-14.57-14.349H129.7V652.985z M-27.933,712.862H87.308l-76.88,75.712l-38.362-37.779    V712.862z M103.345,712.862h15.099V727.8L24.49,820.327l39.514,38.914h-91.937v-92.623l38.348,37.764L103.345,712.862z     M320.193,767.183v92.078h-93.146l39.535-38.934l-91.822-90.429l0.001-17.037h15.267l92.079,92.641L320.193,767.183z     M205.897,712.862h114.296v38.355l-38.086,38.319L205.897,712.862z M145.55,716.927l17.954,17.682v135.906h36.078l-54.032,53.211    l-54.032-53.211h38.202V732.518L145.55,716.927z M118.444,743.622v115.619H80.07l-39.514-38.914L118.444,743.622z     M174.761,745.695l75.783,74.631L211.01,859.26h-36.249V745.695z"/>
	</g>
</g>















</svg>
