<?xml version="1.0" encoding="iso-8859-1"?>
<!-- Generator: Adobe Illustrator 19.0.0, SVG Export Plug-In . SVG Version: 6.00 Build 0)  -->
<svg version="1.1" id="Layer_1" xmlns="http://www.w3.org/2000/svg" xmlns:xlink="http://www.w3.org/1999/xlink" x="0px" y="0px"
	 viewBox="0 0 512 512" style="enable-background:new 0 0 512 512;" xml:space="preserve">
<path style="fill:#EA348B;" d="M325.624,501.578C170.643,508.076,36.847,372.145,50.91,216.042
	C62.999,81.858,205.031-24.468,335.987,20.641c108.88,37.504,169.111,183.08,90.087,276.234
	c-31.309,36.906-80.176,58.087-128.72,52.902c-62.999-6.728-113.729-63.897-109.082-128.074c3.154-43.56,35.444-81.28,78.646-89.648
	c24.704-4.785,63.242,0.312,77.096,24.127c5.993,10.302,1.432,23.488-12.364,21.443c-5.184-0.769-10.299-7.481-14.596-9.822
	c-9.661-5.262-20.867-8.256-31.088-7.597c-35.563,2.291-59.659,33.14-60.177,66.017c3.176,77.702,91.837,98.046,144.374,55.292
	c46.777-38.065,46.631-104.71,13.707-151.486c-42.537-60.439-121.64-68.488-183.912-36.535
	C131.96,128.386,99.462,203.058,109.45,276.01c9.577,69.936,52.304,131.855,113.384,166.883
	c23.753,13.621,49.666,22.785,76.587,27.612c8.092,1.451,25.258,0.188,32.211,4.844
	C342.615,482.706,340.439,501.019,325.624,501.578z"/>
<g>
	<path style="fill:#C9175F;" d="M315.024,512c-74.134,0-146.172-31.279-199.129-86.837
		c-54.618-57.302-82.008-133.858-75.145-210.036c6.374-70.748,47.692-137.276,110.527-177.962
		c58.262-37.723,126.796-47.263,188.031-26.17C399.593,31.76,447.976,84.51,465.577,148.66
		c15.47,56.384,3.907,112.811-31.724,154.814c-30.657,36.139-76.316,57.267-122.054,57.27c-5.184,0-10.363-0.271-15.528-0.822
		c-33.303-3.556-64.041-19.884-86.549-45.974c-22.82-26.451-34.05-59.472-31.624-92.98c1.692-23.372,11.206-46.094,26.788-63.984
		c15.744-18.076,37.086-30.485,60.094-34.942c24.662-4.778,70.322-1.125,87.853,29.013c5.266,9.05,5.285,19.89,0.05,27.615
		c-4.86,7.169-13.145,10.467-22.727,9.047c-6.163-0.914-10.836-4.968-14.589-8.225c-1.088-0.945-2.733-2.371-3.389-2.729
		c-8.371-4.559-17.687-6.883-25.553-6.376c-31.058,2-50.084,29.845-50.628,55.714c1.238,28.11,15.089,49.52,39.022,60.307
		c28.093,12.661,63.741,7.514,88.708-12.804c44.902-36.54,39.594-98.219,11.805-137.702
		c-41.086-58.374-117.081-60.952-170.916-33.33c-60.702,31.147-94.885,100.29-85.058,172.055
		c9.051,66.105,49.557,125.7,108.352,159.417c22.348,12.816,47.014,21.705,73.313,26.421c2.031,0.363,5.414,0.533,8.994,0.712
		c9.416,0.471,20.089,1.006,27.093,5.697c9.157,6.134,13.476,17.742,10.503,28.227c-2.8,9.878-11.151,16.263-21.793,16.669
		C322.35,511.924,318.685,512,315.024,512z M273.266,20.412c-37.898,0-76.338,11.501-110.899,33.88
		C104.754,91.596,66.886,152.406,61.07,216.958c-6.335,70.324,19.03,141.081,69.593,194.128
		c49.094,51.508,115.799,80.509,184.362,80.512c3.39,0,6.774-0.07,10.172-0.213c0.014,0,0.029-0.001,0.043-0.001
		c2.258-0.085,2.692-0.959,2.944-1.847c0.5-1.762-0.106-4.29-2.229-5.712c-2.386-1.552-12.093-2.038-16.759-2.272
		c-4.25-0.212-8.264-0.413-11.575-1.007c-28.608-5.13-55.477-14.82-79.862-28.804c-64.245-36.843-108.513-102.02-118.416-174.349
		c-5.289-38.63,0.559-77.123,16.912-111.315c17.043-35.633,44.375-63.871,79.046-81.659c33.33-17.102,70.874-23.267,105.718-17.361
		c37.888,6.423,69.423,26.167,91.195,57.1c17.887,25.415,26.721,55.784,24.873,85.514c-1.977,31.796-16.354,60.121-40.484,79.757
		c-30.815,25.076-75.008,31.335-109.969,15.58c-30.969-13.958-49.572-42.522-51.037-78.367c-0.008-0.192-0.01-0.385-0.007-0.577
		c0.297-18.82,7.204-36.937,19.449-51.013c12.947-14.882,30.8-23.768,50.271-25.023c11.78-0.755,24.787,2.373,36.622,8.819
		c2.599,1.416,4.837,3.358,7.002,5.236c1.311,1.137,3.466,3.007,4.484,3.49c1.287,0.154,2.324,0.019,2.572-0.347
		c0.574-0.847,0.718-3.311-0.795-5.911c-10.363-17.815-42.506-23.859-66.338-19.242c-37.96,7.353-67.573,41.153-70.411,80.37
		c-4.149,57.295,41.641,110.963,99.991,117.194c44.106,4.706,90.035-14.204,119.858-49.359
		c31.663-37.325,41.467-85.701,27.607-136.217C430.059,96.314,386.669,48.887,332.665,30.285
		C313.465,23.671,293.442,20.412,273.266,20.412z"/>
	<path style="fill:#C9175F;" d="M329.419,59.997c-1.102,0-2.222-0.18-3.322-0.559c-2.899-0.999-5.854-1.923-8.783-2.746
		c-5.424-1.526-8.583-7.159-7.057-12.582c1.526-5.424,7.162-8.579,12.582-7.057c3.303,0.929,6.634,1.971,9.902,3.096
		c5.327,1.834,8.158,7.64,6.324,12.967C337.607,57.341,333.651,59.997,329.419,59.997z"/>
	<path style="fill:#C9175F;" d="M79.977,230.978c-0.307,0-0.616-0.013-0.927-0.042c-5.611-0.506-9.75-5.464-9.244-11.075
		C79.235,115.195,174.549,28.395,277.87,30.412c5.633,0.107,10.112,4.761,10.004,10.394c-0.107,5.633-4.783,10.103-10.394,10.004
		c-93.022-1.747-178.85,76.476-187.357,170.882C89.647,226.992,85.197,230.978,79.977,230.978z"/>
</g>
<g>
</g>
<g>
</g>
<g>
</g>
<g>
</g>
<g>
</g>
<g>
</g>
<g>
</g>
<g>
</g>
<g>
</g>
<g>
</g>
<g>
</g>
<g>
</g>
<g>
</g>
<g>
</g>
<g>
</g>
</svg>
